<svg width="197" height="25" viewBox="0 0 197 25" fill="none" xmlns="http://www.w3.org/2000/svg">
<path d="M32.1211 9.17085H36.1336H48.0468C49.0422 9.17085 49.8509 8.36212 49.8509 7.36677V6.18478C49.8509 5.18942 49.0422 4.3807 48.0468 4.3807H32.1211V0.337058H48.0468C51.2506 0.337058 53.8945 2.98097 53.8945 6.18478V7.36677C53.8945 9.91737 52.2149 12.0947 49.9131 12.9034L53.8945 19H49.0733L45.3096 13.2145H36.1336V19H32.1211V13.2145V9.17085ZM65.9846 19H61.1945L73.2943 0.337058H77.7112L89.8421 19H85.0519L75.5027 4.34959L65.9846 19ZM115.173 14.9875C116.106 14.9875 116.884 14.2409 116.884 13.3078V12.9968H120.896V13.3078C120.896 16.4494 118.314 19.0311 115.173 19.0311H108.361H102.855C99.7137 19.0311 97.1631 16.4494 97.1631 13.3078V6.06036C97.1631 2.91876 99.7137 0.337058 102.855 0.337058H108.361H115.173C118.314 0.337058 120.896 2.91876 120.896 6.06036V6.37141H116.884V6.06036C116.884 5.12721 116.106 4.3807 115.173 4.3807H108.361H102.855C101.922 4.3807 101.176 5.12721 101.176 6.06036V13.3078C101.176 14.2409 101.922 14.9875 102.855 14.9875H108.361H115.173ZM137.636 4.3807H128.211V0.337058H129.02H137.636H141.648H150.264H151.104V4.3807H141.648V19H137.636V4.3807Z" fill="white"/>
<path d="M158.408 0.337058H162.421V19H158.408V0.337058ZM179.167 4.3807H169.742V0.337058H170.551H179.167H183.179H191.795H192.635V4.3807H183.179V19H179.167V4.3807Z" fill="#2253FF"/>
<path d="M4.14648 9.15527e-05V10.3569H25.2658V7.07532H11.2155L8.28547 9.24484V3.2231H25.2658V9.15527e-05H4.14648Z" fill="white"/>
<rect x="4.14648" y="14.503" width="4.14624" height="4.14624" fill="#2253FF"/>
<rect y="10.3565" width="4.14624" height="4.14624" fill="#2253FF"/>
</svg>
