<svg width="15" height="18" viewBox="0 0 15 18" fill="none" xmlns="http://www.w3.org/2000/svg">
<path fill-rule="evenodd" clip-rule="evenodd" d="M1.93791 3.24373C3.00459 5.02766 4.29131 7.1675 4.79726 7.99866L5.71701 9.5096L2.98316 13.1642C1.47947 15.174 0.249083 16.9269 0.249083 17.0592C0.249083 17.1915 0.491891 17.2999 0.788386 17.2999C1.20176 17.2999 1.85639 16.6003 3.58653 14.3106C4.82863 12.6663 5.96269 11.1709 6.10652 10.9875C6.3153 10.7208 6.65002 11.1315 7.76552 13.0228C8.53415 14.3256 9.45236 15.8213 9.80608 16.3459L10.4492 17.2999H12.5295C13.6738 17.2999 14.6099 17.204 14.6099 17.087C14.6099 16.9697 14.2281 16.2543 13.7613 15.4969C13.2946 14.7395 12.0048 12.5862 10.8953 10.7117L8.87771 7.30386L10.0294 5.75069C10.6631 4.89663 11.8533 3.30988 12.6747 2.22456C13.4959 1.13925 14.168 0.194624 14.168 0.125679C14.168 0.0564791 13.845 0.00814113 13.45 0.0180631C12.811 0.0343454 12.4885 0.369149 10.5226 3.05674C9.30743 4.71778 8.26351 6.07964 8.20275 6.08269C8.14199 6.08575 7.29692 4.72236 6.3248 3.05292L4.55732 0.0175543L2.27793 0.00864995L-0.00167847 0L1.93791 3.24373ZM8.24672 8.60492C10.6529 12.5681 12.6215 15.8594 12.6215 15.9192C12.6215 15.979 12.2487 16.0235 11.7929 16.0182C11.0787 16.0098 10.8796 15.8673 10.348 14.9827C10.0089 14.4184 7.99662 11.0964 5.8763 7.6L2.02143 1.24305L2.9467 1.32115L3.87198 1.39926L8.24672 8.60492Z" fill="white"/>
</svg>
