<svg width="20" height="20" viewBox="0 0 20 20" fill="none" xmlns="http://www.w3.org/2000/svg">
<path d="M10.1257 18.7997C14.8949 18.7997 18.7589 14.9241 18.7589 10.1461C18.7589 5.3681 14.8949 1.49258 10.1257 1.49258C5.35657 1.49258 1.49258 5.3681 1.49258 10.1461C1.49258 14.9241 5.35657 18.7997 10.1257 18.7997Z" fill="#FF9D2E" stroke="#FFD19E" stroke-width="1.01485"/>
<g filter="url(#filter0_d_975_395)">
<path fill-rule="evenodd" clip-rule="evenodd" d="M4.91761 7.32194C4.95202 7.273 6.04079 6.58036 7.33714 5.78274C8.867 4.84141 9.74485 4.33062 9.83861 4.32721C9.99485 4.32146 14.6795 6.88587 14.8477 7.06918L14.939 7.16872L14.9865 10.0246C15.0233 12.229 15.0198 12.9005 14.9716 12.9681C14.9372 13.0162 14.3501 13.3982 13.6671 13.8169C12.984 14.2357 11.9162 14.89 11.2941 15.271C10.6684 15.6541 10.1057 15.965 10.0349 15.9666C9.89301 15.9699 5.19027 13.3858 5.04151 13.2228L4.95023 13.1228L4.90265 10.2668C4.86595 8.0633 4.86939 7.3906 4.91761 7.32194ZM13.6023 7.62167C13.4531 7.53704 12.5598 7.0399 11.6174 6.51689C11.0333 6.19277 10.5076 5.90565 10.1865 5.73451L10.2551 7.61422L10.6341 7.60187C11.2611 7.58145 11.7843 8.04474 11.8004 8.63464C11.8057 8.8316 11.6404 8.99685 11.4311 9.00367C11.2218 9.01049 11.0477 8.85639 11.0423 8.65943C11.037 8.46274 10.8626 8.30834 10.6536 8.31515L10.2746 8.32749L10.3141 9.77781L10.6931 9.76547C11.3201 9.74504 11.8433 10.2084 11.8593 10.7983L11.8794 11.5354C11.8955 12.1253 11.3985 12.6219 10.7715 12.6423L10.3925 12.6547L10.4465 14.4379C10.4467 14.4452 10.4466 14.4525 10.4464 14.4597C10.8193 14.2447 11.379 13.9106 11.9937 13.5341L13.9497 12.3363L13.9117 10.0559L13.8737 7.77547L13.6023 7.62167ZM9.70845 14.5682C9.69642 14.535 9.68945 14.4996 9.68845 14.4625L9.63447 12.6794L9.25545 12.6917C8.62847 12.7122 8.10531 12.2489 8.08923 11.659C8.08386 11.462 8.24921 11.2967 8.45853 11.2899C8.66785 11.2831 8.8419 11.4373 8.84727 11.6343C8.85263 11.8309 9.02702 11.9853 9.23601 11.9785L9.61503 11.9661L9.5755 10.5158L9.19648 10.5281C8.5695 10.5486 8.04634 10.0852 8.03026 9.49527L8.01017 8.75822C7.99409 8.16827 8.49109 7.67169 9.11807 7.65127L9.49709 7.63892L9.43042 5.81233C9.00702 6.06536 8.22217 6.54397 6.86389 7.37601L5.93828 7.94298L5.98996 10.2458L6.04163 12.5486L6.76521 12.9492C8.1657 13.7244 9.23319 14.3114 9.70845 14.5682ZM9.17704 9.81486L9.55606 9.80251L9.51653 8.35219L9.13751 8.36454C8.92852 8.37135 8.76285 8.53688 8.76821 8.73352L8.7883 9.47057C8.79366 9.66722 8.96805 9.82167 9.17704 9.81486ZM10.7521 11.9291C10.9611 11.9222 11.1267 11.7567 11.1214 11.5601L11.1013 10.823C11.0959 10.6264 10.9216 10.4719 10.7126 10.4787L10.3335 10.4911L10.3731 11.9414L10.7521 11.9291Z" fill="url(#paint0_linear_975_395)" fill-opacity="0.9" shape-rendering="crispEdges"/>
</g>
<defs>
<filter id="filter0_d_975_395" x="4.03074" y="2.30355" width="14.1805" height="15.6866" filterUnits="userSpaceOnUse" color-interpolation-filters="sRGB">
<feFlood flood-opacity="0" result="BackgroundImageFix"/>
<feColorMatrix in="SourceAlpha" type="matrix" values="0 0 0 0 0 0 0 0 0 0 0 0 0 0 0 0 0 0 127 0" result="hardAlpha"/>
<feOffset dx="1.17641"/>
<feGaussianBlur stdDeviation="1.0118"/>
<feComposite in2="hardAlpha" operator="out"/>
<feColorMatrix type="matrix" values="0 0 0 0 0 0 0 0 0 0 0 0 0 0 0 0 0 0 0.25 0"/>
<feBlend mode="normal" in2="BackgroundImageFix" result="effect1_dropShadow_975_395"/>
<feBlend mode="normal" in="SourceGraphic" in2="effect1_dropShadow_975_395" result="shape"/>
</filter>
<linearGradient id="paint0_linear_975_395" x1="8.6209" y1="9.42138" x2="20.3879" y2="8.99304" gradientUnits="userSpaceOnUse">
<stop stop-color="white"/>
<stop offset="1" stop-color="white" stop-opacity="0"/>
</linearGradient>
</defs>
</svg>
