<svg width="22" height="17" viewBox="0 0 49 17" fill="none" xmlns="http://www.w3.org/2000/svg">
<path fill-rule="evenodd" clip-rule="evenodd" d="M46.2978 0.881718C45.5551 2.19953 45.2528 3.57041 45.3985 4.96044L45.5241 6.15687L45.217 5.61304C45.048 5.31393 44.9051 4.67765 44.8991 4.19908C44.8913 3.5554 44.8349 3.41379 44.6831 3.65525C44.0151 4.71702 44.5403 6.6548 45.9496 8.32718C46.937 9.49881 47.1219 10.0611 46.8123 10.9511L46.5882 11.5952L47.0743 10.9956C49.3672 8.16708 49.5659 6.62369 47.9187 4.43227C46.7172 2.83363 46.409 1.84539 46.7532 0.693771C47.0453 -0.2836 46.9273 -0.234873 46.2978 0.881718ZM20.7687 3.6881C14.9919 6.78749 17.1408 16.9797 23.5755 17C31.7534 17.0256 32.1099 3.43598 23.9417 3.04638L22.1266 2.95958L20.7687 3.6881ZM1.71917 5.99372C2.66463 7.51927 3.56859 8.96042 3.72807 9.19644C4.1648 9.84295 4.16311 9.84708 2.02013 13.3974L0.0226621 16.7072H1.75538L3.48832 16.7069L4.62017 14.6408C5.24264 13.5042 5.82001 12.5314 5.90303 12.4786C5.98606 12.4259 6.6043 13.3557 7.27675 14.5449L8.49925 16.7072H10.2741H12.049L9.95643 13.3056L7.86386 9.90385L8.91014 8.18905C9.48581 7.24583 10.3836 5.78989 10.9055 4.9537C11.4274 4.11751 11.8544 3.38529 11.8544 3.32678C11.8544 3.26804 11.1008 3.22019 10.1797 3.22019H8.50497L7.28141 5.39268L6.05786 7.56495L4.80189 5.39268L3.54593 3.22019H1.77296H0L1.71917 5.99372ZM13.3369 9.96368V16.7072H14.8195H16.3021V9.96368V3.22019H14.8195H13.3369V9.96368ZM30.9162 9.95541V16.7072H32.3946H33.8727L33.9301 12.1934L33.9873 7.67959L36.3171 12.139L38.6468 16.5984L40.5001 16.6613L42.3533 16.7241V9.97216V3.22019H40.7695H39.1854L39.128 7.34981L39.0704 11.4797L36.9289 7.4042L34.7874 3.32895L32.8518 3.2663L30.9162 3.20387V9.95541ZM25.4878 6.48751C27.232 8.06049 26.9907 12.8155 25.1161 13.8153C22.6635 15.1231 20.7509 13.4503 20.7503 9.99652C20.7495 6.27129 23.2194 4.44206 25.4878 6.48751Z" fill="white"/>
</svg>
