<svg width="19" height="37" viewBox="0 0 19 37" fill="none" xmlns="http://www.w3.org/2000/svg">
<path d="M15.8077 2.13462H13.0241V0H5.75537V2.13462H3.1152C1.39718 2.13462 0 3.57101 0 5.3366V33.7982C0 35.5634 1.39757 37 3.1152 37H15.8077C17.5262 37 18.9231 35.5634 18.9231 33.7982V5.33652C18.9231 3.57101 17.5262 2.13462 15.8077 2.13462ZM16.8465 33.7984C16.8465 34.3866 16.3805 34.8655 15.8077 34.8655H3.1152C2.54235 34.8655 2.0764 34.3875 2.0764 33.7984V5.33652C2.0764 4.7483 2.54235 4.26917 3.1152 4.26917H15.8077C16.3805 4.26917 16.8465 4.74822 16.8465 5.33652V33.7984ZM15.714 33.6022H3.20898V28.9192H15.7137L15.714 33.6022ZM15.714 27.7656H3.20898V23.0828H15.7137L15.714 27.7656ZM15.714 21.9289H3.20898V17.2457H15.7137L15.714 21.9289Z" fill="#EBBD1A"/>
</svg>
