<svg width="53" height="13" viewBox="0 0 53 13" fill="none" xmlns="http://www.w3.org/2000/svg">
<path d="M22.4371 9.03318L21.7645 7.45258L18.3578 7.43371L17.6775 9.00682L16.3732 8.99959L19.477 2.20312L20.7228 2.21002L23.7609 9.04051L22.4371 9.03318ZM18.7916 6.44326L21.3515 6.45744L20.0832 3.47187L18.7916 6.44326ZM26.8474 9.12574C25.2024 9.11663 24.0406 8.00054 24.0492 6.44318C24.0578 4.88582 25.2319 3.7924 26.8769 3.80152C27.8892 3.80712 28.6947 4.23014 29.0895 5.02076L28.152 5.56066C27.8433 5.06253 27.3773 4.83607 26.8615 4.83321C25.966 4.82825 25.2812 5.44742 25.2756 6.44997C25.27 7.46226 25.948 8.07924 26.8434 8.0842C27.3593 8.08706 27.8278 7.86578 28.142 7.3711L29.0734 7.92135C28.67 8.69782 27.8597 9.13135 26.8474 9.12574ZM32.9755 7.94296L33.3113 8.81113C33.018 9.04312 32.5794 9.15749 32.1414 9.15507C31.0026 9.14876 30.3537 8.54167 30.3601 7.39311L30.374 4.8916L29.5174 4.88686L29.5228 3.91351L30.3794 3.91825L30.3859 2.73076L31.6026 2.7375L31.596 3.92499L32.9879 3.9327L32.9825 4.90605L31.5907 4.89834L31.577 7.37065C31.5742 7.8768 31.8257 8.15074 32.2929 8.15332C32.546 8.15472 32.7897 8.08794 32.9755 7.94296ZM34.9574 3.0481C34.5097 3.04562 34.1805 2.72258 34.1828 2.31377C34.185 1.90497 34.5177 1.58559 34.9655 1.58807C35.4132 1.59055 35.7425 1.89412 35.7403 2.2932C35.7379 2.72147 35.4149 3.05063 34.9574 3.0481ZM34.3106 9.09894L34.3394 3.90125L35.5561 3.90799L35.5273 9.10568L34.3106 9.09894ZM40.8518 3.93732L42.0198 3.94379L39.762 9.12914L38.5064 9.12218L36.3062 3.91214L37.5716 3.91915L39.166 7.78257L40.8518 3.93732ZM47.5093 6.60232C47.5088 6.69966 47.4982 6.84561 47.4878 6.96236L43.4095 6.93977C43.5513 7.69979 44.1813 8.18997 45.0865 8.19498C45.6705 8.19822 46.129 8.01581 46.501 7.63826L47.149 8.39135C46.6787 8.94357 45.9471 9.23153 45.0516 9.22657C43.3093 9.21692 42.1864 8.09131 42.195 6.54369C42.2035 4.99606 43.3485 3.89275 44.8961 3.90132C46.4146 3.90973 47.5183 4.97683 47.5093 6.60232ZM44.8907 4.87467C44.1023 4.8703 43.5252 5.37326 43.4042 6.13183L46.3535 6.14817C46.2603 5.39815 45.6889 4.87909 44.8907 4.87467Z" fill="#2BE777"/>
<circle cx="6.45241" cy="5.70437" r="5.70437" fill="#2BE777"/>
<path d="M4.01758 6.23611L5.33964 7.55808L8.88649 4.01123" stroke="#2F2B1F" stroke-width="0.811138"/>
</svg>
