<svg width="38" height="39" viewBox="0 0 38 39" fill="none" xmlns="http://www.w3.org/2000/svg">
<path d="M18.8931 37.4958C28.8434 37.4958 36.9071 29.4097 36.9071 19.4382C36.9071 9.46666 28.8434 1.3805 18.8931 1.3805C8.94273 1.3805 0.87904 9.46666 0.87904 19.4382C0.87904 29.4097 8.94273 37.4958 18.8931 37.4958Z" fill="#FF9D2E" stroke="#FFD19E" stroke-width="1.23899"/>
<g filter="url(#filter0_d_997_1166)">
<path fill-rule="evenodd" clip-rule="evenodd" d="M7.74294 13.3926C7.81661 13.2878 10.1473 11.8051 12.9224 10.0976C16.1973 8.08256 18.0765 6.98914 18.2772 6.98182C18.6116 6.96952 28.64 12.4591 29 12.8515L29.1954 13.0646L29.2972 19.1782C29.3758 23.897 29.3685 25.3345 29.2651 25.479C29.1915 25.5821 27.9349 26.3999 26.4727 27.2962C25.0105 28.1926 22.7245 29.5933 21.3929 30.4089C20.0534 31.2291 18.8489 31.8945 18.6974 31.898C18.3936 31.905 8.32661 26.3733 8.00817 26.0244L7.81276 25.8102L7.71093 19.6966C7.63235 14.9796 7.63971 13.5395 7.74294 13.3926ZM26.334 14.0342C26.0145 13.853 24.1024 12.7888 22.0849 11.6692C20.8339 10.975 19.7078 10.36 19.0207 9.99372L19.1676 14.018L19.9789 13.9916C21.3211 13.9478 22.441 14.9396 22.4754 16.2024C22.4869 16.624 22.133 16.9778 21.6849 16.9924C21.2368 17.007 20.8642 16.6771 20.8527 16.2554C20.8412 15.8344 20.4679 15.5039 20.0205 15.5184L19.2092 15.5449L19.2938 18.6495L20.1052 18.6231C21.4473 18.5794 22.5672 19.5712 22.6017 20.8341L22.6447 22.4119C22.6791 23.6748 21.6152 24.7378 20.273 24.7815L19.4617 24.808L19.5772 28.6251C19.5776 28.6412 19.5776 28.6572 19.5769 28.673C20.3753 28.2127 21.574 27.4971 22.8906 26.6908L27.0776 24.1266L26.9963 19.2451L26.915 14.3634L26.334 14.0342ZM17.9971 28.9038C17.9715 28.8328 17.9566 28.757 17.9545 28.678L17.8389 24.8608L17.0276 24.8873C15.6854 24.931 14.5655 23.9392 14.5311 22.6764C14.5196 22.2548 14.8736 21.9011 15.3216 21.8865C15.7697 21.8719 16.1423 22.202 16.1538 22.6236C16.1653 23.0444 16.5386 23.375 16.986 23.3604L17.7973 23.3339L17.7127 20.2293L16.9014 20.2557C15.5592 20.2994 14.4393 19.3076 14.4048 18.0447L14.3618 16.4669C14.3274 15.204 15.3913 14.141 16.7335 14.0973L17.5449 14.0709L17.4022 10.1617C16.4955 10.7036 14.8156 11.728 11.9093 13.5083L9.92786 14.722L10.0385 19.6516L10.1491 24.5812L11.698 25.4387C14.6946 27.0973 16.979 28.3536 17.9971 28.9038ZM16.8597 18.7288L17.6711 18.7024L17.5865 15.5977L16.7751 15.6242C16.3277 15.6388 15.9731 15.9931 15.9846 16.4141L16.0276 17.9918C16.039 18.4128 16.4124 18.7434 16.8597 18.7288ZM20.2314 23.2546C20.6788 23.2401 21.0334 22.8857 21.022 22.4648L20.979 20.887C20.9675 20.466 20.5942 20.1354 20.1468 20.15L19.3354 20.1764L19.42 23.2811L20.2314 23.2546Z" fill="url(#paint0_linear_997_1166)" fill-opacity="0.9" shape-rendering="crispEdges"/>
</g>
<defs>
<filter id="filter0_d_997_1166" x="6.62342" y="4.51115" width="26.6335" height="29.8573" filterUnits="userSpaceOnUse" color-interpolation-filters="sRGB">
<feFlood flood-opacity="0" result="BackgroundImageFix"/>
<feColorMatrix in="SourceAlpha" type="matrix" values="0 0 0 0 0 0 0 0 0 0 0 0 0 0 0 0 0 0 127 0" result="hardAlpha"/>
<feOffset dx="1.43624"/>
<feGaussianBlur stdDeviation="1.23527"/>
<feComposite in2="hardAlpha" operator="out"/>
<feColorMatrix type="matrix" values="0 0 0 0 0 0 0 0 0 0 0 0 0 0 0 0 0 0 0.25 0"/>
<feBlend mode="normal" in2="BackgroundImageFix" result="effect1_dropShadow_997_1166"/>
<feBlend mode="normal" in="SourceGraphic" in2="effect1_dropShadow_997_1166" result="shape"/>
</filter>
<linearGradient id="paint0_linear_997_1166" x1="15.6705" y1="17.8868" x2="40.8597" y2="16.9698" gradientUnits="userSpaceOnUse">
<stop stop-color="white"/>
<stop offset="1" stop-color="white" stop-opacity="0"/>
</linearGradient>
</defs>
</svg>
