<svg width="24" height="24" viewBox="0 0 24 24" fill="none" xmlns="http://www.w3.org/2000/svg">
<path d="M17.0003 2H7.00027C4.23885 2 2.00027 4.23858 2.00027 7V17C2.00027 19.7614 4.23885 22 7.00027 22H17.0003C19.7617 22 22.0003 19.7614 22.0003 17V7C22.0003 4.23858 19.7617 2 17.0003 2Z" stroke="white" stroke-width="2" stroke-linecap="round" stroke-linejoin="round"/>
<path d="M16.0003 11.37C16.1237 12.2022 15.9815 13.0522 15.594 13.799C15.2065 14.5458 14.5934 15.1514 13.8419 15.5297C13.0904 15.9079 12.2387 16.0396 11.4081 15.9059C10.5774 15.7723 9.81005 15.3801 9.21513 14.7852C8.6202 14.1902 8.22802 13.4229 8.09435 12.5922C7.96069 11.7615 8.09235 10.9099 8.47061 10.1584C8.84887 9.40685 9.45447 8.79374 10.2013 8.40624C10.9481 8.01874 11.798 7.87658 12.6303 8C13.4792 8.12588 14.2651 8.52146 14.872 9.1283C15.4788 9.73515 15.8744 10.5211 16.0003 11.37Z" stroke="white" stroke-width="2" stroke-linecap="round" stroke-linejoin="round"/>
<path d="M17.5003 6.5H17.5103" stroke="white" stroke-width="2" stroke-linecap="round" stroke-linejoin="round"/>
</svg>
